<?xml version="1.0" encoding="UTF-8" standalone="no"?>
<!-- Created with Inkscape (http://www.inkscape.org/) -->

<svg
   width="50.799999mm"
   height="128.5mm"
   viewBox="0 0 50.799999 128.5"
   version="1.1"
   id="svg12510"
   inkscape:version="1.2.2 (b0a8486541, 2022-12-01)"
   sodipodi:docname="MyModulePanel.svg"
   xmlns:inkscape="http://www.inkscape.org/namespaces/inkscape"
   xmlns:sodipodi="http://sodipodi.sourceforge.net/DTD/sodipodi-0.dtd"
   xmlns="http://www.w3.org/2000/svg"
   xmlns:svg="http://www.w3.org/2000/svg">
  <sodipodi:namedview
     id="namedview12512"
     pagecolor="#ffffff"
     bordercolor="#000000"
     borderopacity="0.25"
     inkscape:showpageshadow="2"
     inkscape:pageopacity="0.0"
     inkscape:pagecheckerboard="0"
     inkscape:deskcolor="#d1d1d1"
     inkscape:document-units="mm"
     showgrid="false"
     inkscape:zoom="1.4454838"
     inkscape:cx="42.892213"
     inkscape:cy="229.68088"
     inkscape:window-width="1920"
     inkscape:window-height="1007"
     inkscape:window-x="0"
     inkscape:window-y="44"
     inkscape:window-maximized="1"
     inkscape:current-layer="layer1" />
  <defs
     id="defs12507" />
  <g
     inkscape:label="Layer 1"
     inkscape:groupmode="layer"
     id="layer1">
    <path
       id="rect12631"
       style="fill:#d8eac7;fill-opacity:1;stroke-width:0.457999;stroke-linecap:round;stroke-linejoin:bevel;paint-order:markers fill stroke"
       d="M 0.40000013,0 H 50.399999 c 0.2216,0 0.4,0.1784 0.4,0.40000001 V 128.1 c 0,0.2216 -0.1784,0.4 -0.4,0.4 H 0.40000013 C 0.17840012,128.5 1.1853028e-7,128.3216 1.1853028e-7,128.1 V 0.40000001 C 1.1853028e-7,0.1784 0.17840012,0 0.40000013,0 Z" />
    <g
       aria-label="my module"
       id="text12635"
       style="font-size:4.23333px;font-family:'Noto Sans';-inkscape-font-specification:'Noto Sans';stroke-width:0.457999;stroke-linecap:round;stroke-linejoin:bevel;paint-order:markers fill stroke"
       transform="translate(-7.2284079,3.4487892)">
      <path
         d="m 24.187152,3.1140847 q 0.385233,0 0.575733,0.1989665 0.1905,0.1947332 0.1905,0.6349995 v 1.477432 h -0.3683 V 3.964984 q 0,-0.5376329 -0.461433,-0.5376329 -0.330199,0 -0.474133,0.1904998 -0.139699,0.1904999 -0.139699,0.5545662 v 1.2530656 h -0.3683 V 3.964984 q 0,-0.5376329 -0.465666,-0.5376329 -0.3429,0 -0.474133,0.2116665 -0.131234,0.2116665 -0.131234,0.6095995 V 5.4254827 H 21.697954 V 3.156418 h 0.300567 l 0.05503,0.3090331 h 0.02117 q 0.105833,-0.1777999 0.283633,-0.2624665 0.182033,-0.0889 0.385233,-0.0889 0.533399,0 0.694266,0.3809997 h 0.02117 q 0.1143,-0.1947332 0.309033,-0.2878665 0.198966,-0.093133 0.419099,-0.093133 z"
         style="stroke-width:0.458"
         id="path19801" />
      <path
         d="m 25.300516,3.156418 h 0.397933 l 0.491066,1.2911656 q 0.0635,0.1693332 0.1143,0.3259664 0.0508,0.1523998 0.0762,0.2920997 h 0.01693 q 0.0254,-0.1058332 0.08043,-0.2751664 0.05503,-0.1735665 0.114299,-0.3471331 l 0.46144,-1.2869322 h 0.402167 l -0.977899,2.5823312 q -0.118534,0.321733 -0.309034,0.5122329 -0.186266,0.1904998 -0.516466,0.1904998 -0.1016,0 -0.1778,-0.0127 -0.0762,-0.00847 -0.131233,-0.021167 V 6.1112822 q 0.04657,0.00847 0.110067,0.016933 0.06773,0.00847 0.1397,0.00847 0.194733,0 0.313266,-0.1100666 0.122767,-0.1100666 0.1905,-0.2920998 l 0.118533,-0.3005664 z"
         style="stroke-width:0.458"
         id="path19803" />
      <path
         d="m 31.404979,3.1140847 q 0.385233,0 0.575733,0.1989665 0.1905,0.1947332 0.1905,0.6349995 v 1.477432 h -0.3683 V 3.964984 q 0,-0.5376329 -0.461433,-0.5376329 -0.330199,0 -0.474133,0.1904998 -0.1397,0.1904999 -0.1397,0.5545662 V 5.4254827 H 30.359347 V 3.964984 q 0,-0.5376329 -0.465667,-0.5376329 -0.342899,0 -0.474132,0.2116665 -0.131234,0.2116665 -0.131234,0.6095995 V 5.4254827 H 28.915781 V 3.156418 h 0.300567 l 0.05503,0.3090331 h 0.02117 q 0.105833,-0.1777999 0.283633,-0.2624665 0.182033,-0.0889 0.385233,-0.0889 0.533399,0 0.694266,0.3809997 h 0.02117 q 0.1143,-0.1947332 0.309034,-0.2878665 0.198966,-0.093133 0.419099,-0.093133 z"
         style="stroke-width:0.458"
         id="path19805" />
      <path
         d="m 34.846674,4.286717 q 0,0.5630329 -0.287866,0.872066 -0.283633,0.309033 -0.770466,0.309033 -0.300567,0 -0.537633,-0.1354665 -0.232833,-0.1396999 -0.3683,-0.4021663 -0.135466,-0.2666998 -0.135466,-0.6434662 0,-0.5630328 0.283633,-0.8678326 0.283633,-0.3047997 0.770466,-0.3047997 0.309033,0 0.541866,0.1396999 0.237067,0.1354665 0.3683,0.397933 0.135466,0.2582331 0.135466,0.6349994 z m -1.714498,0 q 0,0.4021664 0.156633,0.6392328 0.160866,0.2328332 0.508,0.2328332 0.342899,0 0.503766,-0.2328332 0.160866,-0.2370664 0.160866,-0.6392328 0,-0.4021663 -0.160866,-0.6307661 -0.160867,-0.2285998 -0.508,-0.2285998 -0.347133,0 -0.503766,0.2285998 -0.156633,0.2285998 -0.156633,0.6307661 z"
         style="stroke-width:0.458"
         id="path19807" />
      <path
         d="m 36.239437,5.467816 q -0.423333,0 -0.677332,-0.2920997 -0.254,-0.2963331 -0.254,-0.8805326 0,-0.5841995 0.254,-0.8805326 0.258233,-0.3005664 0.681566,-0.3005664 0.262466,0 0.427566,0.097367 0.169333,0.097367 0.275166,0.2370664 h 0.0254 q -0.0042,-0.055033 -0.01693,-0.1608665 -0.0085,-0.1100666 -0.0085,-0.1735665 v -0.905933 h 0.372533 V 5.4254827 H 37.01837 L 36.963337,5.120683 h -0.01693 Q 36.844803,5.2646162 36.67547,5.3662161 36.506137,5.467816 36.239437,5.467816 Z m 0.05927,-0.309033 q 0.359833,0 0.503766,-0.1947332 Q 36.95064,4.7650833 36.95064,4.3671503 V 4.299417 q 0,-0.4233329 -0.1397,-0.6476994 -0.1397,-0.2285998 -0.516466,-0.2285998 -0.300567,0 -0.452967,0.2412998 -0.148166,0.2370664 -0.148166,0.6392328 0,0.4063996 0.148166,0.6307661 0.1524,0.2243665 0.4572,0.2243665 z"
         style="stroke-width:0.458"
         id="path19809" />
      <path
         d="m 39.935133,3.156418 v 2.2690647 h -0.3048 L 39.5753,5.1249163 h -0.01693 q -0.110067,0.1777999 -0.3048,0.2624665 -0.194733,0.080433 -0.414866,0.080433 -0.410633,0 -0.618067,-0.1947331 -0.207436,-0.1989663 -0.207436,-0.630766 V 3.156418 h 0.376767 v 1.4604988 q 0,0.5418662 0.503766,0.5418662 0.376766,0 0.520699,-0.2116665 Q 39.5626,4.73545 39.5626,4.337517 V 3.156418 Z"
         style="stroke-width:0.458"
         id="path19811" />
      <path
         d="M 41.027332,5.4254827 H 40.654799 V 2.2081521 h 0.372533 z"
         style="stroke-width:0.458"
         id="path19813" />
      <path
         d="m 42.623295,3.1140847 q 0.2921,0 0.499533,0.1269999 0.211667,0.1269999 0.321733,0.359833 0.1143,0.2285998 0.1143,0.5376329 V 4.362917 h -1.553632 q 0.0085,0.385233 0.194733,0.5884328 0.1905,0.1989665 0.529167,0.1989665 0.2159,0 0.380999,-0.0381 0.169334,-0.042333 0.347133,-0.1185332 v 0.3259664 q -0.173566,0.0762 -0.342899,0.1100666 -0.169333,0.0381 -0.402167,0.0381 -0.321733,0 -0.571499,-0.1312332 Q 41.895163,5.2053496 41.755463,4.9471165 41.619996,4.68465 41.619996,4.3078837 q 0,-0.372533 0.122767,-0.6392328 0.127,-0.2666998 0.351366,-0.410633 0.2286,-0.1439332 0.529166,-0.1439332 z m -0.0042,0.3047997 q -0.2667,0 -0.423333,0.1735666 -0.1524,0.1693331 -0.182033,0.4741329 h 1.155699 q -0.0043,-0.2878664 -0.1355,-0.4656663 -0.131233,-0.1820332 -0.414866,-0.1820332 z"
         style="stroke-width:0.458"
         id="path19815" />
    </g>
    <g
       aria-label="pitch"
       id="text13520"
       style="font-size:4.23333px;font-family:'Noto Sans';-inkscape-font-specification:'Noto Sans';stroke-width:0.457999;stroke-linecap:round;stroke-linejoin:bevel;paint-order:markers fill stroke"
       transform="translate(5.7410476)">
      <path
         d="m 16.153759,19.132455 q 0.4191,0 0.6731,0.2921 0.258233,0.2921 0.258233,0.880533 0,0.579966 -0.258233,0.880532 -0.254,0.300567 -0.677333,0.300567 -0.262467,0 -0.436033,-0.09737 -0.169333,-0.1016 -0.2667,-0.232833 h -0.0254 q 0.0085,0.07197 0.01693,0.182033 0.0085,0.110067 0.0085,0.1905 V 22.45985 H 15.07426 v -3.285064 h 0.3048 l 0.0508,0.309033 h 0.01693 q 0.1016,-0.148167 0.2667,-0.249767 0.1651,-0.1016 0.440266,-0.1016 z m -0.06773,0.313267 q -0.347133,0 -0.491066,0.194733 -0.1397,0.194733 -0.148167,0.592666 v 0.07197 q 0,0.419099 0.135467,0.647699 0.139699,0.224367 0.512233,0.224367 0.207433,0 0.338666,-0.1143 0.135466,-0.1143 0.198966,-0.309033 0.06773,-0.198967 0.06773,-0.452967 0,-0.389466 -0.1524,-0.622299 -0.148167,-0.232833 -0.461433,-0.232833 z"
         style="stroke-width:0.458"
         id="path19818" />
      <path
         d="m 17.868257,18.323889 q 0.08467,0 0.148166,0.05927 0.06773,0.05503 0.06773,0.1778 0,0.118533 -0.06773,0.1778 -0.0635,0.05927 -0.148166,0.05927 -0.09313,0 -0.156634,-0.05927 -0.0635,-0.05927 -0.0635,-0.1778 0,-0.122767 0.0635,-0.1778 0.0635,-0.05927 0.156634,-0.05927 z m 0.182033,0.8509 v 2.269064 h -0.372533 v -2.269064 z"
         style="stroke-width:0.458"
         id="path19820" />
      <path
         d="m 19.52772,21.181387 q 0.08467,0 0.173566,-0.0127 0.0889,-0.01693 0.143933,-0.03387 v 0.283633 q -0.05927,0.02963 -0.169333,0.04657 -0.110066,0.02117 -0.211666,0.02117 -0.1778,0 -0.3302,-0.05927 -0.148167,-0.0635 -0.2413,-0.2159 -0.09313,-0.1524 -0.09313,-0.427566 v -1.320799 h -0.321733 v -0.1778 l 0.325966,-0.148166 0.148167,-0.4826 h 0.220133 v 0.5207 h 0.656166 v 0.287866 H 19.17212 v 1.312332 q 0,0.207433 0.09737,0.309033 0.1016,0.09737 0.258234,0.09737 z"
         style="stroke-width:0.458"
         id="path19822" />
      <path
         d="m 21.208352,21.486187 q -0.300567,0 -0.537633,-0.122767 -0.232834,-0.122766 -0.3683,-0.381 -0.131233,-0.258233 -0.131233,-0.660399 0,-0.4191 0.1397,-0.681566 0.139699,-0.262467 0.376766,-0.385233 0.2413,-0.122767 0.546099,-0.122767 0.173567,0 0.334434,0.0381 0.160866,0.03387 0.262466,0.08467 l -0.1143,0.309033 q -0.1016,-0.0381 -0.237066,-0.07197 -0.135467,-0.03387 -0.254,-0.03387 -0.668866,0 -0.668866,0.859366 0,0.410633 0.160866,0.630766 0.1651,0.2159 0.486833,0.2159 0.186267,0 0.325967,-0.0381 0.143933,-0.0381 0.262466,-0.09313 v 0.3302 q -0.1143,0.05927 -0.254,0.0889 -0.135466,0.03387 -0.330199,0.03387 z"
         style="stroke-width:0.458"
         id="path19824" />
      <path
         d="m 22.702715,19.170555 q 0,0.169333 -0.02117,0.3175 h 0.0254 q 0.110067,-0.173566 0.296333,-0.262466 0.1905,-0.0889 0.410633,-0.0889 0.414867,0 0.6223,0.198966 0.207433,0.194733 0.207433,0.630766 v 1.477432 h -0.3683 v -1.452032 q 0,-0.546099 -0.507999,-0.546099 -0.381,0 -0.524933,0.2159 -0.1397,0.211666 -0.1397,0.609599 v 1.172632 h -0.372533 v -3.21733 h 0.372533 z"
         style="stroke-width:0.458"
         id="path19826" />
    </g>
    <g
       aria-label="out"
       id="text13524"
       style="font-size:4.23333px;font-family:'Noto Sans';-inkscape-font-specification:'Noto Sans';stroke-width:0.457999;stroke-linecap:round;stroke-linejoin:bevel;paint-order:markers fill stroke"
       transform="translate(-13.855555)">
      <path
         d="m 38.165473,107.13091 q 0,0.56303 -0.287866,0.87207 -0.283633,0.30903 -0.770466,0.30903 -0.300567,0 -0.537633,-0.13547 -0.232833,-0.1397 -0.3683,-0.40216 -0.135466,-0.2667 -0.135466,-0.64347 0,-0.56303 0.283633,-0.86783 0.283633,-0.3048 0.770466,-0.3048 0.309033,0 0.541866,0.1397 0.237067,0.13546 0.3683,0.39793 0.135466,0.25823 0.135466,0.635 z m -1.714498,0 q 0,0.40217 0.156633,0.63923 0.160867,0.23284 0.508,0.23284 0.342899,0 0.503766,-0.23284 0.160866,-0.23706 0.160866,-0.63923 0,-0.40217 -0.160866,-0.63077 -0.160867,-0.2286 -0.508,-0.2286 -0.347133,0 -0.503766,0.2286 -0.156633,0.2286 -0.156633,0.63077 z"
         style="stroke-width:0.458"
         id="path19829" />
      <path
         d="m 40.650436,106.00061 v 2.26907 h -0.3048 l -0.05503,-0.30057 h -0.01693 q -0.110067,0.1778 -0.3048,0.26247 -0.194733,0.0804 -0.414867,0.0804 -0.410633,0 -0.618066,-0.19473 -0.207433,-0.19897 -0.207433,-0.63077 v -1.4859 h 0.376767 v 1.4605 q 0,0.54187 0.503766,0.54187 0.376766,0 0.520699,-0.21167 0.148167,-0.21167 0.148167,-0.6096 v -1.1811 z"
         style="stroke-width:0.458"
         id="path19831" />
      <path
         d="m 42.127868,108.00721 q 0.08467,0 0.173567,-0.0127 0.0889,-0.0169 0.143933,-0.0339 v 0.28364 q -0.05927,0.0296 -0.169333,0.0466 -0.110067,0.0212 -0.211667,0.0212 -0.1778,0 -0.330199,-0.0593 -0.148167,-0.0635 -0.2413,-0.2159 -0.09313,-0.1524 -0.09313,-0.42756 v -1.3208 h -0.321734 v -0.1778 l 0.325967,-0.14817 0.148166,-0.4826 h 0.220134 v 0.5207 h 0.656166 v 0.28787 h -0.656166 v 1.31233 q 0,0.20743 0.09737,0.30903 0.1016,0.0974 0.258233,0.0974 z"
         style="stroke-width:0.458"
         id="path19833" />
    </g>
  </g>
  <g
     inkscape:groupmode="layer"
     id="layer3"
     inkscape:label="components"
     style="display:none">
    <ellipse
       style="fill:#ff0000;fill-opacity:1;stroke-width:0.819603;stroke-linecap:round;stroke-linejoin:bevel;paint-order:markers fill stroke"
       id="path13579"
       inkscape:label="Pitch"
       cx="25.4"
       cy="34.592907"
       rx="4.9545341"
       ry="5.487916" />
    <ellipse
       style="fill:#00ff00;fill-opacity:1;stroke-width:0.457999;stroke-linecap:round;stroke-linejoin:bevel;paint-order:markers fill stroke"
       id="path14359"
       inkscape:label="V/Oct"
       cx="25.4"
       cy="50.413521"
       rx="1.0452172"
       ry="1.3216801" />
    <ellipse
       style="fill:#0000ff;fill-opacity:1;stroke-width:0.457999;stroke-linecap:round;stroke-linejoin:bevel;paint-order:markers fill stroke"
       id="path15865"
       inkscape:label="Output"
       cx="25.4"
       cy="116.28399"
       rx="2.231777"
       ry="2.2657864" />
    <ellipse
       style="fill:#ff00ff;fill-opacity:1;stroke-width:0.457999;stroke-linecap:round;stroke-linejoin:bevel;paint-order:markers fill stroke"
       id="path17371"
       transform="scale(-1,1)"
       inkscape:label="Light"
       cx="-25.4"
       cy="90.296829"
       rx="1.5597589"
       ry="1.8866222" />
  </g>
</svg>
