<?xml version="1.0" encoding="UTF-8" standalone="no"?>
<svg
width="260"
height="380"
viewBox="0 0 260 380"
version="1.1"
xmlns="http://www.w3.org/2000/svg"
xmlns:svg="http://www.w3.org/2000/svg">
<g>
<rect id="panel" x="0" y="0" width="260" height="380" fill="#bbb"/>

<path id="label-lights" transform="translate(7.5,38)" fill="#1a81e5" d="M 1.7211914e-5,8.3639832 V -1.6845703e-5 H 1.0560172 V 7.4159832 h 3.744 v 0.948 z m 5.844010088086,0 v -5.916 h 1.008 v 5.916 z m -0.096,-6.984 V -1.6845703e-5 h 1.2 V 1.3799832 Z m 5.2079977,9.5399998 q -1.2719997,0 -2.0159997,-0.468 -0.744,-0.4679998 -0.744,-1.2959998 0,-0.06 0,-0.156 0.012,-0.096 0.036,-0.18 l 1.476,-1.068 0.3479997,0.24 -0.8399997,1.044 q -0.012,0.048 -0.012,0.084 0,0.036 0,0.072 0,0.48 0.504,0.708 0.5039997,0.2399998 1.2479997,0.2399998 0.66,0 1.092,-0.1919998 0.432,-0.18 0.432,-0.6 0,-0.24 -0.144,-0.396 -0.132,-0.144 -0.396,-0.228 -0.252,-0.084 -0.6,-0.144 -0.348,-0.06 -0.78,-0.12 -0.54,-0.084 -1.0559997,-0.24 -0.504,-0.156 -0.84,-0.456 -0.324,-0.3 -0.324,-0.792 0,-0.42 0.288,-0.768 0.3,-0.348 0.78,-0.576 l 0.6479997,0.42 q -0.4079997,0.096 -0.5759997,0.3 -0.168,0.192 -0.168,0.468 0,0.228 0.156,0.372 0.168,0.144 0.468,0.228 0.3119997,0.072 0.7439997,0.132 0.576,0.084 1.08,0.18 0.504,0.096 0.888,0.276 0.396,0.168 0.612,0.456 0.216,0.3 0.216,0.768 0,0.8159998 -0.672,1.2479998 -0.672,0.444 -1.848,0.444 z m -0.144,-4.4039998 q -0.684,0 -1.2119997,-0.264 -0.528,-0.264 -0.828,-0.732 -0.288,-0.468 -0.288,-1.068 0,-0.624 0.3,-1.092 0.312,-0.48 0.828,-0.744 0.5279997,-0.264 1.1639997,-0.264 0.624,0 1.14,0.264 0.516,0.264 0.828,0.744 0.312,0.48 0.312,1.128 0,0.612 -0.288,1.068 -0.288,0.456 -0.792,0.708 -0.504,0.252 -1.164,0.252 z m -0.024,-0.828 q 0.6,0 0.924,-0.36 0.336,-0.372 0.336,-0.9 0,-0.564 -0.348,-0.912 -0.348,-0.348 -0.912,-0.348 -0.576,0 -0.9359997,0.36 -0.36,0.348 -0.36,0.888 0,0.54 0.348,0.912 0.3479997,0.36 0.9479997,0.36 z m 1.884,-2.136 -0.732,-0.492 1.248,-1.032 0.516,0.636 z m 2.064,4.812 V -1.6845703e-5 h 1.02 V 3.7079832 l -0.252,0.096 q 0.168,-0.456 0.468,-0.78 0.3,-0.324 0.708,-0.492 0.408,-0.18 0.888,-0.18 0.972,0 1.524,0.576 0.552,0.564 0.552,1.68 v 3.756 h -1.02 v -3.384 q 0,-0.9 -0.336,-1.32 -0.324,-0.432 -0.996,-0.432 -0.732,0 -1.14,0.528 -0.396,0.516 -0.396,1.656 v 2.952 z m 8.376004,0.096 q -0.42,0 -0.768,-0.156 -0.336,-0.168 -0.528,-0.528 -0.192,-0.36 -0.192,-0.924 V 0.86398315 l 1.032,-0.576 V 6.5879832 q 0,0.492 0.156,0.768 0.156,0.264 0.564,0.264 0.12,0 0.288,-0.024 0.168,-0.036 0.36,-0.084 v 0.792 q -0.228,0.084 -0.468,0.12 -0.228,0.036 -0.444,0.036 z m -2.712,-5.22 v -0.792 h 3.624 v 0.792 z m 6.852008,5.22 q -0.6,0 -1.08,-0.18 -0.48,-0.18 -0.828,-0.48 -0.336,-0.3 -0.54,-0.636 l 0.708,-0.6 q 0.228,0.456 0.672,0.756 0.456,0.288 1.08,0.288 0.564,0 0.9,-0.24 0.336,-0.24 0.336,-0.648 0,-0.336 -0.204,-0.528 -0.204,-0.192 -0.54,-0.312 -0.336,-0.12 -0.732,-0.216 -0.336,-0.084 -0.684,-0.204 -0.336,-0.12 -0.612,-0.3 -0.276,-0.18 -0.444,-0.468 -0.168,-0.288 -0.168,-0.708 0,-0.732 0.564,-1.176 0.576,-0.456 1.5,-0.456 0.672,0 1.224,0.288 0.564,0.276 0.876,0.84 l -0.648,0.48 q -0.24,-0.42 -0.636,-0.6 -0.384,-0.192 -0.852,-0.192 -0.468,0 -0.78,0.192 -0.312,0.192 -0.312,0.528 0,0.252 0.144,0.408 0.144,0.156 0.42,0.264 0.288,0.108 0.696,0.204 0.372,0.084 0.756,0.204 0.384,0.12 0.708,0.312 0.324,0.192 0.516,0.516 0.204,0.312 0.204,0.816 0,0.552 -0.276,0.972 -0.276,0.42 -0.78,0.648 -0.504,0.228 -1.188,0.228 z" />
<g id="lights" transform="translate(7.5,10)">
  <circle id="k:l-tiny"   cx="3"  cy="15" r="2.9" fill="#fff" />
  <circle id="k:l-small"  cx="15" cy="15" r="5.8" fill="#fff" />
  <circle id="k:l-medium" cx="32" cy="15" r="8.8" fill="#fff" />
  <circle id="k:l-large"  cx="58" cy="15" r="14.7" fill="#fff" />
</g>

<path id="label-knobs" transform="translate(7.5,84)" fill="#1a81e5" d="M 0,0.140625 H 1.0195312 V 3.1757813 L 4.1777344,0.140625 H 5.6074219 L 2.0039063,3.609375 5.6308594,7.6054687 H 4.3300781 L 1.0195312,3.9667969 V 7.6054687 H 0 Z M 6.3339844,7.6054687 V 2.7714844 H 7.3300781 V 3.5742188 Q 7.7695312,3.0878906 8.1269531,2.8652344 8.484375,2.6367188 8.9238281,2.6367188 q 0.65625,0 1.1191409,0.4335937 0.46875,0.4335938 0.46875,1.0429687 V 7.6054687 H 9.4921875 V 4.4121094 q 0,-0.3925782 -0.2578125,-0.6503906 Q 8.9824219,3.5039063 8.5898438,3.5039063 8.0800781,3.5039063 7.7109375,3.9375 7.3417969,4.3652344 7.3417969,4.9746094 v 2.6308593 z m 5.1738286,-2.4375 q 0,-0.9902343 0.779296,-1.7578124 0.785157,-0.7734375 1.798829,-0.7734375 1.042968,0 1.822265,0.7617187 0.779297,0.7558594 0.779297,1.7695312 0,1.0195313 -0.767578,1.7988282 -0.761719,0.7734375 -1.763672,0.7734375 -1.072266,0 -1.863281,-0.7675782 -0.785156,-0.7675781 -0.785156,-1.8046875 z m 4.195312,0 q 0,-0.6152343 -0.46875,-1.0664062 -0.46875,-0.4570312 -1.113281,-0.4570312 -0.66211,0 -1.142578,0.4628906 -0.47461,0.4570312 -0.47461,1.0957031 0,0.609375 0.480469,1.0664062 0.486328,0.4570313 1.136719,0.4570313 0.632812,0 1.107422,-0.46875 0.474609,-0.46875 0.474609,-1.0898438 z M 17.935547,0 h 1.007812 v 3.7265625 q 0.650391,-1.0898437 1.863282,-1.0898437 0.9375,0 1.623046,0.75 0.691407,0.7499999 0.691407,1.7812499 0,1.03125 -0.679688,1.8046875 -0.673828,0.7675782 -1.576172,0.7675782 -0.580078,0 -1.101562,-0.3105469 -0.521485,-0.3105469 -0.820313,-0.84375 v 1.0195312 h -1.007812 z m 4.107422,5.1679687 q 0,-0.6621093 -0.47461,-1.1308593 Q 21.09375,3.5625 20.419922,3.5625 q -0.650391,0 -1.13086,0.4804687 -0.474609,0.4746094 -0.474609,1.125 0,0.6796875 0.474609,1.1484375 0.480469,0.4628907 1.177735,0.4628907 0.644531,0 1.107422,-0.4746094 0.46875,-0.4746094 0.46875,-1.1367188 z m 5.273437,-1.8222656 -0.679687,0.5976563 q -0.263672,-0.1875 -0.457032,-0.28125 Q 25.986328,3.5625 25.722656,3.5625 q -0.621094,0 -0.621094,0.4570312 0,0.328125 0.785157,0.6386719 0.791015,0.3046875 1.136718,0.6738281 0.345704,0.3691407 0.345704,0.890625 0,0.609375 -0.498047,1.0664063 -0.498047,0.4511719 -1.171875,0.4511719 -1.025391,0 -1.681641,-0.9492188 l 0.802734,-0.3867187 q 0.421875,0.4101562 0.878907,0.4101562 0.316406,0 0.550781,-0.1699219 0.240234,-0.1757812 0.240234,-0.4042968 0,-0.4042969 -0.832031,-0.7265625 Q 24.826172,5.1914062 24.503906,4.8632812 24.1875,4.5292969 24.1875,4.0429687 q 0,-0.6035156 0.451172,-1.0019531 0.457031,-0.4042968 1.142578,-0.4042968 0.685547,0 1.535156,0.7089843 z" />
<g transform="translate(7.5,40)">
  <circle id="k:RoundBlackSmall"  cx="12"  cy="28" r="11.3" fill="#222" />
  <circle id="k:RoundBlackMedium" cx="42"  cy="28" r="14"   fill="#222" />
  <circle id="k:RoundBlackLarge"  cx="76"  cy="28" r="17.8" fill="#222" />
  <circle id="k:RoundBlackBig"    cx="120" cy="28" r="22.5" fill="#222" />
  <circle id="k:RoundBlackHuge"   cx="174" cy="28" r="26.6" fill="#222" />
</g>
  <path id="label-trimpot" transform="translate(130,130)" fill="#1a81e5" d="M 2.8080073,8.3639832 V 0.94798315 H 7.3242187e-6 V -1.6845703e-5 H 6.6720073 V 0.94798315 h -2.796 V 8.3639832 Z m 3.8160101,0 v -5.916 h 1.02 v 1.584 l -0.264,0.06 q 0.084,-0.528 0.396,-0.912 0.324,-0.396 0.744,-0.612 0.432,-0.216 0.84,-0.216 0.276,0 0.528,0.06 0.2519996,0.06 0.5159996,0.204 l -0.5039996,0.912 q -0.144,-0.072 -0.348,-0.12 -0.192,-0.048 -0.372,-0.048 -0.288,0 -0.576,0.108 -0.276,0.108 -0.504,0.336 -0.228,0.228 -0.348,0.612 -0.048,0.168 -0.084,0.444 -0.024,0.264 -0.024,0.732 v 2.772 z m 4.8719946,0 v -5.916 h 1.008 v 5.916 z m -0.096,-6.984 V -1.6845703e-5 h 1.2 V 1.3799832 Z m 2.819998,6.984 v -5.916 h 1.02 v 1.524 h -0.204 q 0.108,-0.42 0.288,-0.72 0.192,-0.312 0.444,-0.504 0.252,-0.204 0.54,-0.3 0.3,-0.096 0.624,-0.096 0.54,0 0.948,0.204 0.408,0.204 0.672,0.624 0.264,0.408 0.36,1.044 l -0.576,0.036 q 0.18,-0.612 0.456,-1.032 0.276,-0.432 0.684,-0.648 0.42,-0.228 0.996,-0.228 0.732,0 1.176,0.336 0.444,0.324 0.648,0.876 0.204,0.54 0.204,1.2 v 3.6 h -1.008 v -3.36 q 0,-0.552 -0.132,-0.948 -0.12,-0.396 -0.396,-0.612 -0.264,-0.216 -0.72,-0.216 -0.432,0 -0.744,0.216 -0.3,0.216 -0.468,0.66 -0.156,0.432 -0.156,1.08 v 3.18 h -1.02 v -3.444 q 0,-0.852 -0.312,-1.272 -0.312,-0.42 -0.912,-0.42 -0.432,0 -0.744,0.228 -0.312,0.216 -0.48,0.648 -0.168,0.432 -0.168,1.08 v 3.18 z m 10.01999,0 V -1.6845703e-5 h 2.496 q 1.356,0 2.064,0.599999995703 0.72,0.60000005 0.72,1.76400005 0,1.164 -0.72,1.788 -0.72,0.612 -2.064,0.612 h -1.452 v 3.6 z m 1.044,-4.536 h 1.344 q 0.864,0 1.344,-0.348 0.492,-0.36 0.492,-1.104 0,-0.732 -0.48,-1.08 -0.468,-0.34800005 -1.356,-0.34800005 h -1.344 z m 7.764002,4.632 q -0.828,0 -1.488,-0.384 -0.648,-0.396 -1.02,-1.092 -0.372,-0.696 -0.372,-1.584 0,-0.888 0.36,-1.572 0.372,-0.696 1.02,-1.08 0.66,-0.396 1.5,-0.396 0.84,0 1.476,0.396 0.648,0.384 1.02,1.08 0.372,0.684 0.372,1.572 0,0.888 -0.372,1.584 -0.372,0.684 -1.02,1.08 -0.648,0.396 -1.476,0.396 z m 0,-0.9 q 0.564,0 0.972,-0.264 0.42,-0.276 0.648,-0.756 0.228,-0.492 0.228,-1.14 0,-0.66 -0.228,-1.14 -0.228,-0.492 -0.648,-0.756 -0.408,-0.264 -0.972,-0.264 -0.576,0 -0.996,0.276 -0.42,0.264 -0.648,0.744 -0.228,0.48 -0.228,1.14 0,0.648 0.228,1.14 0.228,0.48 0.648,0.756 0.42,0.264 0.996,0.264 z m 6.156,0.9 q -0.42,0 -0.768,-0.156 -0.336,-0.168 -0.528,-0.528 -0.192,-0.36 -0.192,-0.924 V 0.86398315 l 1.032,-0.576 V 6.5879832 q 0,0.492 0.156,0.768 0.156,0.264 0.564,0.264 0.12,0 0.288,-0.024 0.168,-0.036 0.36,-0.084 v 0.792 q -0.228,0.084 -0.468,0.12 -0.228,0.036 -0.444,0.036 z m -2.712,-5.22 v -0.792 h 3.624 v 0.792 z" />
<g transform="translate(140,110)">
  <circle id="k:TrimPot"   cx="9" cy="9" r="8.9" fill="#bd10c3" />
</g>

<path id="label-Davies" transform="translate(7.5,150)" fill="#1a81e5" d="m 0,0.140625 h 1.8105469 q 2.1503906,0 3.1992187,1.1367187 1.0488281,1.1367188 1.0488281,2.5957032 0,1.4707031 -1.0839843,2.6015625 Q 3.890625,7.6054687 1.8222656,7.6054687 H 0 Z m 1.0195312,0.9960937 v 5.4609375 h 0.058594 q 1.1367188,0 1.7109375,-0.099609 Q 3.3632813,6.3925781 3.8789063,6.046875 4.3945312,5.7011719 4.6992187,5.1328125 5.0039062,4.5585937 5.0039062,3.8730469 q 0,-0.8613281 -0.4863281,-1.5585938 Q 4.03125,1.6171875 3.3515625,1.3769531 2.6777344,1.1367187 1.5351562,1.1367187 Z M 11.208984,2.7714844 h 1.019532 V 7.6054687 H 11.208984 V 6.6445312 q -0.74414,1.0957032 -1.8457027,1.0957032 -0.9550782,0 -1.6347657,-0.75 -0.6738281,-0.75 -0.6738281,-1.8222657 0,-1.0136718 0.6796875,-1.7695312 0.6855469,-0.7617187 1.6054688,-0.7617187 0.5683593,0 1.0781252,0.3105468 0.509765,0.3105469 0.791015,0.8085938 z M 11.34375,5.203125 q 0,-0.6621094 -0.474609,-1.1308594 -0.47461,-0.4746093 -1.1367191,-0.4746093 -0.6445313,0 -1.125,0.4687499 -0.4804688,0.46875 -0.4804688,1.1015625 0,0.6855469 0.46875,1.1660157 0.46875,0.4804687 1.1367188,0.4804687 0.6621091,0 1.1367191,-0.4746094 Q 11.34375,5.859375 11.34375,5.203125 Z m 1.916016,-2.4316406 h 1.066406 l 1.382812,2.7949218 1.341797,-2.7949218 h 1.078125 l -2.4375,5.015625 z m 5.566406,-1.5878907 q 0,-0.3164062 0.234375,-0.54492183 0.234375,-0.23437499 0.55664,-0.23437499 0.316407,0 0.544922,0.23437499 0.234375,0.22851563 0.234375,0.54492183 0,0.3222657 -0.234375,0.5507813 -0.228515,0.2285156 -0.544922,0.2285156 -0.322265,0 -0.55664,-0.2285156 -0.234375,-0.2285156 -0.234375,-0.5507813 z m 0.287109,1.5878907 h 1.007813 v 4.8339843 h -1.007813 z m 7.359375,2.6132812 h -4.125 Q 22.482422,6.1289062 22.957031,6.4746094 23.4375,6.8144531 24,6.8144531 q 0.867187,0 1.453125,-0.7207031 l 0.744141,0.5625 q -0.837891,1.0839844 -2.244141,1.0839844 -1.078125,0 -1.804688,-0.7382813 -0.726562,-0.7382812 -0.726562,-1.8339844 0,-1.0253906 0.732422,-1.7753906 0.738281,-0.7558593 1.798828,-0.7558593 1.042969,0 1.787109,0.7675781 0.744141,0.7617187 0.732422,1.9804687 z M 22.453125,4.5703125 h 2.953125 q -0.492188,-0.9960937 -1.453125,-0.9960937 -1.048828,0 -1.5,0.9960937 z M 30.5625,3.3457031 29.882812,3.9433594 q -0.263671,-0.1875 -0.457031,-0.28125 Q 29.232422,3.5625 28.96875,3.5625 q -0.621094,0 -0.621094,0.4570312 0,0.328125 0.785156,0.6386719 0.791016,0.3046875 1.136719,0.6738281 0.345703,0.3691407 0.345703,0.890625 0,0.609375 -0.498047,1.0664063 -0.498046,0.4511719 -1.171875,0.4511719 -1.02539,0 -1.68164,-0.9492188 l 0.802734,-0.3867187 q 0.421875,0.4101562 0.878906,0.4101562 0.316407,0 0.550782,-0.1699219 0.240234,-0.1757812 0.240234,-0.4042968 0,-0.4042969 -0.832031,-0.7265625 Q 28.072266,5.1914062 27.75,4.8632812 27.433594,4.5292969 27.433594,4.0429687 q 0,-0.6035156 0.451172,-1.0019531 0.457031,-0.4042968 1.142578,-0.4042968 0.685547,0 1.535156,0.7089843 z M 35.050781,0.140625 h 1.019531 V 3.1757813 L 39.228516,0.140625 h 1.429687 l -3.603516,3.46875 3.626954,3.9960937 H 39.380859 L 36.070312,3.9667969 v 3.6386718 h -1.019531 z m 6.333985,7.4648437 V 2.7714844 h 0.996093 v 0.8027344 q 0.439453,-0.4863282 0.796875,-0.7089844 0.357422,-0.2285156 0.796875,-0.2285156 0.65625,0 1.119141,0.4335937 0.46875,0.4335938 0.46875,1.0429687 V 7.6054687 H 44.542969 V 4.4121094 q 0,-0.3925782 -0.257813,-0.6503906 -0.251953,-0.2578125 -0.644531,-0.2578125 -0.509766,0 -0.878906,0.4335937 -0.369141,0.4277344 -0.369141,1.0371094 v 2.6308593 z m 5.173828,-2.4375 q 0,-0.9902343 0.779297,-1.7578124 0.785156,-0.7734375 1.798828,-0.7734375 1.042968,0 1.822265,0.7617187 0.779297,0.7558594 0.779297,1.7695312 0,1.0195313 -0.767578,1.7988282 -0.761719,0.7734375 -1.763672,0.7734375 -1.072265,0 -1.863281,-0.7675782 -0.785156,-0.7675781 -0.785156,-1.8046875 z m 4.195312,0 q 0,-0.6152343 -0.46875,-1.0664062 -0.46875,-0.4570312 -1.113281,-0.4570312 -0.662109,0 -1.142578,0.4628906 -0.47461,0.4570312 -0.47461,1.0957031 0,0.609375 0.480469,1.0664062 0.486328,0.4570313 1.136719,0.4570313 0.632812,0 1.107422,-0.46875 0.474609,-0.46875 0.474609,-1.0898438 z M 52.986328,0 h 1.007813 v 3.7265625 q 0.65039,-1.0898437 1.863281,-1.0898437 0.9375,0 1.623047,0.75 0.691406,0.7499999 0.691406,1.7812499 0,1.03125 -0.679688,1.8046875 -0.673828,0.7675782 -1.576171,0.7675782 -0.580079,0 -1.101563,-0.3105469 -0.521484,-0.3105469 -0.820312,-0.84375 v 1.0195312 h -1.007813 z m 4.107422,5.1679687 q 0,-0.6621093 -0.474609,-1.1308593 Q 56.144531,3.5625 55.470703,3.5625 q -0.650391,0 -1.130859,0.4804687 -0.47461,0.4746094 -0.47461,1.125 0,0.6796875 0.47461,1.1484375 0.480468,0.4628907 1.177734,0.4628907 0.644531,0 1.107422,-0.4746094 0.46875,-0.4746094 0.46875,-1.1367188 z M 62.367187,3.3457031 61.6875,3.9433594 q -0.263672,-0.1875 -0.457031,-0.28125 Q 61.037109,3.5625 60.773437,3.5625 q -0.621093,0 -0.621093,0.4570312 0,0.328125 0.785156,0.6386719 0.791016,0.3046875 1.136719,0.6738281 0.345703,0.3691407 0.345703,0.890625 0,0.609375 -0.498047,1.0664063 -0.498047,0.4511719 -1.171875,0.4511719 -1.025391,0 -1.681641,-0.9492188 l 0.802735,-0.3867187 q 0.421875,0.4101562 0.878906,0.4101562 0.316406,0 0.550781,-0.1699219 0.240235,-0.1757812 0.240235,-0.4042968 0,-0.4042969 -0.832032,-0.7265625 -0.832031,-0.3222657 -1.154297,-0.6503907 -0.316406,-0.3339843 -0.316406,-0.8203125 0,-0.6035156 0.451172,-1.0019531 0.457031,-0.4042968 1.142578,-0.4042968 0.685547,0 1.535156,0.7089843 z" />
<g id="Davies Knobs" transform="translate(7.5,95)">
  <circle id="k:Davies"      cx="18" cy="27" r="18" fill="#d18213" />
  <circle id="k:DaviesLarge" cx="66" cy="27" r="27" fill="#d18213" />
</g>

<path id="label-buttons" transform="translate(7.5,208)" fill="#1a81e5" d="M 1.7211914e-5,8.3639832 V -1.6845703e-5 H 2.6760172 q 1.188,0 1.86,0.551999995703 0.684,0.55200005 0.684,1.53600005 0,0.624 -0.276,1.092 -0.276,0.468 -0.78,0.708 0.732,0.204 1.104,0.744 0.384,0.54 0.384,1.368 0,1.128 -0.708,1.752 -0.696,0.612 -1.98,0.612 z M 1.0560172,7.3919832 h 1.836 q 1.716,0 1.716,-1.44 0,-0.684 -0.396,-1.056 -0.384,-0.384 -1.092,-0.384 h -2.064 z m 0,-3.828 h 1.788 q 0.6,0 0.96,-0.348 0.372,-0.36 0.372,-0.972 0,-0.6 -0.396,-0.936 -0.396,-0.33600005 -1.104,-0.33600005 h -1.62 z m 8.063998,4.896 q -0.636,0 -1.104,-0.252 -0.468,-0.264 -0.72,-0.768 -0.24,-0.504 -0.24,-1.248 v -3.744 h 1.008 v 3.384 q 0,0.588 0.144,0.984 0.156,0.384 0.456,0.576 0.3,0.18 0.744,0.18 0.492,0 0.8279998,-0.228 0.348,-0.24 0.528,-0.72 0.18,-0.48 0.18,-1.236 v -2.94 h 1.008 v 5.916 h -1.008 v -1.26 h 0.252 q -0.252,0.66 -0.804,1.008 -0.5519998,0.348 -1.2719998,0.348 z m 6.5400108,0 q -0.42,0 -0.768,-0.156 -0.336,-0.168 -0.528,-0.528 -0.192,-0.36 -0.192,-0.924 V 0.86398315 l 1.032,-0.576 V 6.5879832 q 0,0.492 0.156,0.768 0.156,0.264 0.564,0.264 0.12,0 0.288,-0.024 0.168,-0.036 0.36,-0.084 v 0.792 q -0.228,0.084 -0.468,0.12 -0.228,0.036 -0.444,0.036 z m -2.712,-5.22 v -0.792 h 3.624 v 0.792 z m 6.864008,5.22 q -0.42,0 -0.768,-0.156 -0.336,-0.168 -0.528,-0.528 -0.192,-0.36 -0.192,-0.924 V 0.86398315 l 1.032,-0.576 V 6.5879832 q 0,0.492 0.156,0.768 0.156,0.264 0.564,0.264 0.12,0 0.288,-0.024 0.168,-0.036 0.36,-0.084 v 0.792 q -0.228,0.084 -0.468,0.12 -0.228,0.036 -0.444,0.036 z m -2.712,-5.22 v -0.792 h 3.624 v 0.792 z m 7.380005,5.22 q -0.828,0 -1.488,-0.384 -0.648,-0.396 -1.02,-1.092 -0.372,-0.696 -0.372,-1.584 0,-0.888 0.36,-1.572 0.372,-0.696 1.02,-1.08 0.66,-0.396 1.5,-0.396 0.84,0 1.476,0.396 0.648,0.384 1.02,1.08 0.372,0.684 0.372,1.572 0,0.888 -0.372,1.584 -0.372,0.684 -1.02,1.08 -0.648,0.396 -1.476,0.396 z m 0,-0.9 q 0.564,0 0.972,-0.264 0.42,-0.276 0.648,-0.756 0.228,-0.492 0.228,-1.14 0,-0.66 -0.228,-1.14 -0.228,-0.492 -0.648,-0.756 -0.408,-0.264 -0.972,-0.264 -0.576,0 -0.996,0.276 -0.42,0.264 -0.648,0.744 -0.228,0.48 -0.228,1.14 0,0.648 0.228,1.14 0.228,0.48 0.648,0.756 0.42,0.264 0.996,0.264 z m 4.319996,0.804 v -5.916 h 1.02 v 1.26 l -0.24,0.084 q 0.168,-0.456 0.456,-0.768 0.288,-0.324 0.696,-0.492 0.408,-0.18 0.9,-0.18 0.972,0 1.524,0.576 0.552,0.564 0.552,1.68 v 3.756 h -1.02 v -3.384 q 0,-0.9 -0.336,-1.32 -0.324,-0.432 -0.996,-0.432 -0.492,0 -0.84,0.228 -0.336,0.228 -0.516,0.72 -0.18,0.48 -0.18,1.236 v 2.952 z m 8.520011,0.096 q -0.6,0 -1.08,-0.18 -0.48,-0.18 -0.828,-0.48 -0.336,-0.3 -0.54,-0.636 l 0.708,-0.6 q 0.228,0.456 0.672,0.756 0.456,0.288 1.08,0.288 0.564,0 0.9,-0.24 0.336,-0.24 0.336,-0.648 0,-0.336 -0.204,-0.528 -0.204,-0.192 -0.54,-0.312 -0.336,-0.12 -0.732,-0.216 -0.336,-0.084 -0.684,-0.204 -0.336,-0.12 -0.612,-0.3 -0.276,-0.18 -0.444,-0.468 -0.168,-0.288 -0.168,-0.708 0,-0.732 0.564,-1.176 0.576,-0.456 1.5,-0.456 0.672,0 1.224,0.288 0.564,0.276 0.876,0.84 l -0.648,0.48 q -0.24,-0.42 -0.636,-0.6 -0.384,-0.192 -0.852,-0.192 -0.468,0 -0.78,0.192 -0.312,0.192 -0.312,0.528 0,0.252 0.144,0.408 0.144,0.156 0.42,0.264 0.288,0.108 0.696,0.204 0.372,0.084 0.756,0.204 0.384,0.12 0.708,0.312 0.324,0.192 0.516,0.516 0.204,0.312 0.204,0.816 0,0.552 -0.276,0.972 -0.276,0.42 -0.78,0.648 -0.504,0.228 -1.188,0.228 z" />
<g id="buttons" transform="translate(7.5,180)">
  <circle id="k:VCVButton" cx="9" cy="14" r="9" fill="#2c2" />
  <circle id="k:BefacoPush" cx="35" cy="14" r="14" fill="#2c2" />
</g>

<path id="label-Switches" transform="translate(7.5,270)" fill="#1a81e5" d="m 3.0480216,8.6399956 q -1.26,0 -2.06399999,-0.66 -0.804,-0.66 -0.984000003555,-1.752 L 1.0320216,5.9759956 q 0.132,0.84 0.684,1.284 0.564,0.432 1.368,0.432 0.468,0 0.84,-0.18 0.372,-0.18 0.588,-0.504 0.216,-0.336 0.216,-0.756 0,-0.444 -0.24,-0.732 -0.24,-0.288 -0.672,-0.504 -0.42,-0.216 -0.984,-0.432 -0.696,-0.264 -1.224,-0.576 -0.516,-0.312 -0.80399999,-0.744 -0.288,-0.444 -0.288,-1.08 0,-0.636 0.312,-1.128 0.31199999,-0.49199999 0.87599999,-0.76799999 0.564,-0.2880000045312 1.308,-0.2880000045312 0.792,0 1.404,0.3600000045312 0.612,0.36 0.984,1.06799999 l -0.84,0.516 q -0.276,-0.492 -0.672,-0.744 -0.396,-0.26399999 -0.912,-0.26399999 -0.408,0 -0.732,0.15599999 -0.312,0.156 -0.492,0.432 -0.18,0.276 -0.18,0.636 0,0.384 0.216,0.66 0.216,0.264 0.624,0.468 0.408,0.204 0.984,0.42 0.732,0.276 1.26,0.6 0.528,0.324 0.816,0.78 0.3,0.444 0.3,1.104 0,0.708 -0.348,1.26 -0.348,0.552 -0.96,0.876 -0.612,0.312 -1.416,0.312 z m 5.1479877,-0.132 -1.752,-5.916 h 1.08 l 1.2,4.38 1.4159997,-4.38 h 0.9 l 1.416,4.356 1.212,-4.356 h 1.08 l -1.764,5.916 h -0.936 l -1.452,-4.5 -1.4519997,4.5 z m 7.7399907,0 v -5.916 h 1.008 v 5.916 z m -0.096,-6.984 V 0.14399561 h 1.2 V 1.5239956 Z m 4.787998,7.08 q -0.42,0 -0.768,-0.156 -0.336,-0.168 -0.528,-0.528 -0.192,-0.36 -0.192,-0.924 v -5.988 l 1.032,-0.57599999 V 6.7319956 q 0,0.492 0.156,0.768 0.156,0.264 0.564,0.264 0.12,0 0.288,-0.024 0.168,-0.036 0.36,-0.084 v 0.792 q -0.228,0.084 -0.468,0.12 -0.228,0.036 -0.444,0.036 z m -2.712,-5.22 v -0.792 h 3.624 v 0.792 z m 7.236005,5.22 q -0.66,0 -1.176,-0.24 -0.504,-0.24 -0.852,-0.66 -0.348,-0.432 -0.528,-0.984 -0.18,-0.552 -0.18,-1.176 0,-0.612 0.18,-1.164 0.18,-0.552 0.528,-0.972 0.348,-0.432 0.852,-0.672 0.516,-0.24 1.176,-0.24 0.84,0 1.464,0.408 0.636,0.408 0.936,1.248 l -0.9,0.348 q -0.168,-0.504 -0.54,-0.816 -0.372,-0.312 -0.96,-0.312 -0.588,0 -0.972,0.312 -0.384,0.312 -0.576,0.804 -0.18,0.492 -0.18,1.056 0,0.564 0.18,1.068 0.192,0.492 0.576,0.804 0.384,0.3 0.972,0.3 0.588,0 0.96,-0.3 0.372,-0.312 0.54,-0.828 l 0.9,0.348 q -0.3,0.84 -0.936,1.26 -0.624,0.408 -1.464,0.408 z m 3.755996,-0.096 V 0.14399561 h 1.02 V 3.8519956 l -0.252,0.096 q 0.168,-0.456 0.468,-0.78 0.3,-0.324 0.708,-0.492 0.408,-0.18 0.888,-0.18 0.972,0 1.524,0.576 0.552,0.564 0.552,1.68 v 3.756 h -1.02 v -3.384 q 0,-0.9 -0.336,-1.32 -0.324,-0.432 -0.996,-0.432 -0.732,0 -1.14,0.528 -0.396,0.516 -0.396,1.656 v 2.952 z m 9.06001,0.096 q -0.696,0 -1.224,-0.228 -0.516,-0.24 -0.864,-0.66 -0.336,-0.42 -0.516,-0.96 -0.168,-0.552 -0.168,-1.164 0,-0.612 0.168,-1.164 0.168,-0.564 0.492,-0.996 0.336,-0.432 0.84,-0.684 0.504,-0.252 1.176,-0.252 0.684,0 1.176,0.24 0.504,0.228 0.816,0.636 0.324,0.408 0.48,0.912 0.156,0.504 0.156,1.044 0,0.048 -0.012,0.228 0,0.168 -0.024,0.3 h -4.26 q 0.036,0.864 0.504,1.344 0.468,0.48 1.272,0.48 0.516,0 0.9,-0.168 0.384,-0.168 0.72,-0.54 l 0.708,0.624 q -0.324,0.348 -0.684,0.576 -0.36,0.216 -0.768,0.324 -0.396,0.108 -0.888,0.108 z m 1.524,-3.264 q 0.024,-0.096 0.024,-0.192 0.012,-0.096 0.012,-0.192 0,-0.288 -0.108,-0.576 -0.096,-0.288 -0.3,-0.516 -0.192,-0.24 -0.504,-0.372 -0.3,-0.144 -0.72,-0.144 -0.516,0 -0.888,0.24 -0.372,0.24 -0.576,0.636 -0.204,0.396 -0.24,0.876 h 3.636 z m 4.416011,3.264 q -0.6,0 -1.08,-0.18 -0.48,-0.18 -0.828,-0.48 -0.336,-0.3 -0.54,-0.636 l 0.708,-0.6 q 0.228,0.456 0.672,0.756 0.456,0.288 1.08,0.288 0.564,0 0.9,-0.24 0.336,-0.24 0.336,-0.648 0,-0.336 -0.204,-0.528 -0.204,-0.192 -0.54,-0.312 -0.336,-0.12 -0.732,-0.216 -0.336,-0.084 -0.684,-0.204 -0.336,-0.12 -0.612,-0.3 -0.276,-0.18 -0.444,-0.468 -0.168,-0.288 -0.168,-0.708 0,-0.732 0.564,-1.176 0.576,-0.456 1.5,-0.456 0.672,0 1.224,0.288 0.564,0.276 0.876,0.84 l -0.648,0.48 q -0.24,-0.42 -0.636,-0.6 -0.384,-0.192 -0.852,-0.192 -0.468,0 -0.78,0.192 -0.312,0.192 -0.312,0.528 0,0.252 0.144,0.408 0.144,0.156 0.42,0.264 0.288,0.108 0.696,0.204 0.372,0.084 0.756,0.204 0.384,0.12 0.708,0.312 0.324,0.192 0.516,0.516 0.204,0.312 0.204,0.816 0,0.552 -0.276,0.972 -0.276,0.42 -0.78,0.648 -0.504,0.228 -1.188,0.228 z" />
<g id="switches" transform="translate(7.5,240)">
    <rect id="k:CKSS" x="0" y="0" width="14" height="20" fill="#707070"/>
    <rect id="k:CKSSThree" x="16" y="0" width="13.4" height="28" fill="#707070"/>
    <rect id="k:CKSSThreeH" x="32" y="0" width="28" height="13.4" fill="#707070"/>
    <g transform="translate(60,0)">
        <path id="k:NKK" fill="#707070" d="m 8.2929687,0 -6.5,11.257812 L 0,14.361328 0.03125,14.414062 C 0.02052814,14.416292 0.00908366,14.420536 0,14.425781 l 8.2929687,14.361328 c 0.021662,-0.01251 0.037265,-0.03356 0.048828,-0.0625 H 24.876953 l 0.01172,-0.02148 c 0.01144,0.03976 0.0321,0.06869 0.05859,0.08398 l 8.291016,-14.361328 c -0.0269,-0.01553 -0.06059,-0.01832 -0.101563,-0.0078 l 0.02344,-0.04297 h 0.002 c 0.02998,0.004 0.05498,-0.0014 0.07617,-0.01367 L 24.947266,0 c -0.0177,0.010219 -0.03203,0.025642 -0.04297,0.046875 L 24.876956,0 Z" />
    </g>
</g>

<path id="label-Ports" transform="translate(7.5,354)" fill="#1a81e5" d="M 1.7211914e-5,8.3639832 V -1.6845703e-5 H 2.4960172 q 1.356,0 2.064,0.599999995703 0.72,0.60000005 0.72,1.76400005 0,1.164 -0.72,1.788 -0.72,0.612 -2.064,0.612 h -1.452 v 3.6 z M 1.0440172,3.8279832 h 1.344 q 0.864,0 1.344,-0.348 0.492,-0.36 0.492,-1.104 0,-0.732 -0.48,-1.08 -0.468,-0.34800005 -1.356,-0.34800005 h -1.344 z m 7.764002,4.632 q -0.828,0 -1.488,-0.384 -0.648,-0.396 -1.02,-1.092 -0.372,-0.696 -0.372,-1.584 0,-0.888 0.36,-1.572 0.372,-0.696 1.02,-1.08 0.66,-0.396 1.5,-0.396 0.84,0 1.4759998,0.396 0.648,0.384 1.02,1.08 0.372,0.684 0.372,1.572 0,0.888 -0.372,1.584 -0.372,0.684 -1.02,1.08 -0.6479998,0.396 -1.4759998,0.396 z m 0,-0.9 q 0.564,0 0.972,-0.264 0.4199998,-0.276 0.6479998,-0.756 0.228,-0.492 0.228,-1.14 0,-0.66 -0.228,-1.14 -0.228,-0.492 -0.6479998,-0.756 -0.408,-0.264 -0.972,-0.264 -0.576,0 -0.996,0.276 -0.42,0.264 -0.648,0.744 -0.228,0.48 -0.228,1.14 0,0.648 0.228,1.14 0.228,0.48 0.648,0.756 0.42,0.264 0.996,0.264 z m 4.3199958,0.804 v -5.916 h 1.02 v 1.584 l -0.264,0.06 q 0.084,-0.528 0.396,-0.912 0.324,-0.396 0.744,-0.612 0.432,-0.216 0.84,-0.216 0.276,0 0.528,0.06 0.252,0.06 0.516,0.204 l -0.504,0.912 q -0.144,-0.072 -0.348,-0.12 -0.192,-0.048 -0.372,-0.048 -0.288,0 -0.576,0.108 -0.276,0.108 -0.504,0.336 -0.228,0.228 -0.348,0.612 -0.048,0.168 -0.084,0.444 -0.024,0.264 -0.024,0.732 v 2.772 z m 6.851995,0.096 q -0.42,0 -0.768,-0.156 -0.336,-0.168 -0.528,-0.528 -0.192,-0.36 -0.192,-0.924 V 0.86398315 l 1.032,-0.576 V 6.5879832 q 0,0.492 0.156,0.768 0.156,0.264 0.564,0.264 0.12,0 0.288,-0.024 0.168,-0.036 0.36,-0.084 v 0.792 q -0.228,0.084 -0.468,0.12 -0.228,0.036 -0.444,0.036 z m -2.712,-5.22 v -0.792 h 3.624 v 0.792 z m 6.852008,5.22 q -0.6,0 -1.08,-0.18 -0.48,-0.18 -0.828,-0.48 -0.336,-0.3 -0.54,-0.636 l 0.708,-0.6 q 0.228,0.456 0.672,0.756 0.456,0.288 1.08,0.288 0.564,0 0.9,-0.24 0.336,-0.24 0.336,-0.648 0,-0.336 -0.204,-0.528 -0.204,-0.192 -0.54,-0.312 -0.336,-0.12 -0.732,-0.216 -0.336,-0.084 -0.684,-0.204 -0.336,-0.12 -0.612,-0.3 -0.276,-0.18 -0.444,-0.468 -0.168,-0.288 -0.168,-0.708 0,-0.732 0.564,-1.176 0.576,-0.456 1.5,-0.456 0.672,0 1.224,0.288 0.564,0.276 0.876,0.84 l -0.648,0.48 q -0.24,-0.42 -0.636,-0.6 -0.384,-0.192 -0.852,-0.192 -0.468,0 -0.78,0.192 -0.312,0.192 -0.312,0.528 0,0.252 0.144,0.408 0.144,0.156 0.42,0.264 0.288,0.108 0.696,0.204 0.372,0.084 0.756,0.204 0.384,0.12 0.708,0.312 0.324,0.192 0.516,0.516 0.204,0.312 0.204,0.816 0,0.552 -0.276,0.972 -0.276,0.42 -0.78,0.648 -0.504,0.228 -1.188,0.228 z" />
<g id="ports" transform="translate(7.5,320)">
  <path
    id="k:port-CL1362"
    fill="#3b8ab7"
    d="M 9.2050781 3.1347656 L 2.7050781 14.392578 L 0.91210938 17.496094 L 0.94335938 17.548828 C 0.93263752 17.551058 0.92119304 17.555302 0.91210938 17.560547 L 9.2050781 31.921875 C 9.2267405 31.909368 9.2423429 31.888316 9.2539062 31.859375 L 25.789062 31.859375 L 25.800781 31.837891 C 25.812222 31.877652 25.832881 31.906579 25.859375 31.921875 L 34.150391 17.560547 C 34.123494 17.545018 34.089796 17.54223 34.048828 17.552734 L 34.072266 17.509766 L 34.074219 17.509766 C 34.104199 17.513769 34.129201 17.508327 34.150391 17.496094 L 25.859375 3.1347656 C 25.841676 3.1449843 25.827344 3.1604079 25.816406 3.1816406 L 25.789062 3.1347656 L 9.2050781 3.1347656 z " />
    <circle id="k:port-PJ3410" cx="50" cy="18" r="14.6" fill="#3b8ab7" />
    <circle id="k:port-PJ301M" cx="78" cy="18" r="11.5" fill="#3b8ab7" />
</g>

</g>
</svg>